<svg version="1.1" xmlns="http://www.w3.org/2000/svg" xmlns:xlink="http://www.w3.org/1999/xlink" width="560.29656" height="1262.66068" viewBox="0,0,560.29656,1262.66068"><g transform="translate(-39.85172,451.33034)"><g data-paper-data="{&quot;isPaintingLayer&quot;:true}" fill-rule="nonzero" stroke-linecap="butt" stroke-linejoin="miter" stroke-miterlimit="10" stroke-dasharray="" stroke-dashoffset="0" style="mix-blend-mode: normal"><path d="M39.85172,811.33034v-1262.66068h560.29656v1262.66068z" fill="#ffffff" stroke="none" stroke-width="0"/><path d="M39.85172,811.33034v-1262.66068h560.29656v1262.66068z" fill-opacity="0.40392" fill="#000000" stroke="none" stroke-width="0"/><path d="M319.0946,-418.92055c0,0 9.68992,1.34798 14.41072,2.5202c6.85188,1.70141 13.54266,4.06608 19.8044,7.34784c4.92811,2.58279 9.77146,5.41884 14.31059,8.62617c4.40697,3.11389 8.57366,6.63923 12.48313,10.36456c3.50165,3.33672 6.57792,7.13357 9.71768,10.83278c3.95032,4.65417 7.08128,9.87586 9.93416,15.24796c3.3894,6.38236 6.00238,13.08476 7.9583,20.0519c1.81383,6.46091 3.15173,12.99319 3.53762,19.70633c0.01771,0.30803 0.0089,16.83055 -0.0067,16.97247c-0.22074,2.00678 -0.2993,4.03672 -0.64404,6.02079c-0.72421,4.1682 -1.41987,8.35321 -2.42794,12.45747c-1.59433,6.49122 -3.86811,12.78429 -6.93732,18.71836c-2.40021,4.64054 -4.96323,9.24696 -7.95401,13.51833c-3.2037,4.5755 -6.91694,8.80611 -10.56054,13.05629c-1.64632,1.92038 -3.58066,3.6215 -5.52876,5.24931c-3.30861,2.76459 -6.65397,5.49759 -10.12314,8.05497c-6.47553,4.77358 -13.58861,8.41573 -21.05446,11.37923c-6.68403,2.65322 -13.54992,4.6746 -20.65991,5.80483c-2.3232,0.36931 -4.66822,0.60004 -6.99692,0.93811c-0.22153,0.03218 -21.00924,0.02295 -21.22532,-0.00488c-1.7544,-0.22592 -3.54238,-0.28044 -5.265,-0.64654c-5.17223,-1.09923 -10.38948,-2.0744 -15.46025,-3.54299c-7.83489,-2.26912 -15.14707,-5.79027 -22.1753,-9.95736c-6.34969,-3.76479 -12.20502,-8.15104 -17.56724,-13.18781c-4.16545,-3.91265 -8.21396,-7.97223 -11.48398,-12.68894c-3.09896,-4.46999 -6.28446,-8.91519 -8.93898,-13.64777c-2.42804,-4.32881 -4.46185,-8.92973 -6.18101,-13.59085c-1.70239,-4.61567 -2.99676,-9.41039 -4.09134,-14.21288c-0.91017,-3.99339 -1.26433,-8.11302 -1.89687,-12.17174c-0.02683,-0.17219 -0.02847,-19.44684 0.0144,-19.7144c0.82652,-5.16033 1.35196,-10.3884 2.51594,-15.47045c1.59936,-6.98294 4.16047,-13.6952 7.33248,-20.12016c3.09952,-6.27806 6.60342,-12.34586 11.10162,-17.76081c2.93165,-3.52911 5.79049,-7.14316 8.99058,-10.41753c2.85734,-2.9237 6.0825,-5.501 9.24505,-8.11035c4.7029,-3.88023 9.83211,-7.1574 15.19263,-10.03846c5.20342,-2.79662 10.59668,-5.22897 16.26832,-6.91169c4.40603,-1.30723 8.88083,-2.40433 13.36493,-3.41863c2.61573,-0.59168 7.96514,-1.25965 7.96514,-1.25965M309.77325,-379.70926c-3.31595,0 -6.63202,-0.01908 -9.94782,0.00334c-13.69115,0.09253 -27.38319,0.13459 -41.07272,0.34045c-3.63425,0.05464 -6.69122,1.9224 -9.3569,4.28226c-4.30784,3.81362 -6.07644,8.83948 -6.07055,14.41082c0.03269,30.9253 0.14847,61.85059 0.30038,92.77557c0.01496,3.04444 1.05975,5.94104 2.6236,8.53641c3.35808,5.57308 8.56341,8.05382 14.89449,8.06481c31.40183,0.05457 62.80381,0.04449 94.20564,-0.01307c2.46201,-0.00451 4.95555,-0.38199 7.23152,-1.54237c6.23381,-3.17822 9.07919,-8.55076 9.10207,-15.25316c0.10823,-31.70302 0.05506,-63.4066 0.02335,-95.10995c-0.00125,-1.25008 -0.31705,-2.51071 -0.57659,-3.74743c-0.51874,-2.47162 -1.73572,-4.58864 -3.26835,-6.58947c-1.59269,-2.07923 -3.56686,-3.56904 -5.91666,-4.65996c-2.84309,-1.31995 -5.85594,-1.50048 -8.91213,-1.49974c-14.31927,0.00343 -28.63857,0.00152 -43.25934,0.00152z" fill="#ffffff" stroke="none" stroke-width="1"/><path d="M286.70867,-364.63435c22.60639,0 45.06203,-0.00012 67.5177,0.0002c1.87931,0.00002 2.42848,0.55109 2.4286,2.47572c0.00204,31.19678 -0.00015,62.39356 0.00517,93.59035c0.00034,1.98756 -0.57554,2.25428 -2.21335,2.25215c-30.99578,-0.04039 -61.99163,-0.0297 -92.98746,-0.0299c-2.16511,-0.00002 -2.77781,-0.58285 -2.78551,-2.78723c-0.1072,-30.66889 -0.20833,-61.33779 -0.3002,-92.00671c-0.00667,-2.22836 1.34333,-3.49412 3.619,-3.49429c8.18843,-0.00066 16.37687,-0.00027 24.71606,-0.00027M312.79128,-286.2436c0.4744,0.10011 0.95866,0.31972 1.42171,0.28169c4.1189,-0.33839 7.42592,-3.1493 7.44407,-7.59906c0.06499,-15.91657 0.04706,-31.83366 0.00289,-47.75038c-0.00687,-2.47547 -0.94853,-4.56777 -3.07718,-6.11141c-2.51459,-1.82349 -5.09004,-2.00085 -7.81613,-0.71089c-2.74624,1.29952 -4.10345,3.67839 -4.11853,6.55423c-0.08431,16.06705 -0.08189,32.13494 -0.00844,48.20209c0.01624,3.55271 2.41887,6.33351 6.15158,7.13376M332.235,-325.59026c0,10.14774 -0.01817,20.29553 0.00883,30.44317c0.01104,4.13639 3.49738,7.95925 8.38907,7.45462c3.65895,-0.37746 6.65566,-3.68168 6.66387,-7.48684c0.0322,-14.86984 0.10707,-29.74074 -0.04292,-44.60914c-0.04623,-4.5845 -2.68457,-7.23105 -7.0545,-7.58916c-4.37096,-0.35818 -7.83371,2.85768 -7.94052,7.47053c-0.1081,4.66947 -0.02386,9.34339 -0.02386,14.31687z" fill="#ffffff" stroke="none" stroke-width="1"/><path d="M552.19566,183.36312l-194.25761,140.83452l-79.4719,40.49693l-0.53729,0.25199l-11.7017,2.48444h-0.00333l-27.7273,-30.96218l10.66263,-31.7337l1.74399,-3.39584l-87.10504,-78.91018l-58.23099,35.70013l-1.14674,0.5928l-9.22061,1.94936l-22.02243,-24.27818l26.86474,-56.28608l-26.86474,-56.28718l22.02243,-24.27707l9.21838,1.94825l1.14786,0.59391l58.23654,35.70457l88.23403,-79.47412l-2.30349,-4.33833l-11.23878,-32.44639l27.72841,-30.96328l11.70392,2.48332l0.51287,0.23979l85.22117,43.08794l114.22177,42.82262l74.3121,97.64556l0.0011,6.51636zM534.35504,180.10272l-67.12411,-86.68985l-38.75849,-22.76732l-14.15505,19.45585l-7.65423,4.36274l-4.5104,-1.23778l-3.12496,-12.16461l11.93371,-17.23229l-50.2626,-9.85226l-3.44468,-0.93804l-86.54777,-43.75845l-4.48374,-0.95359l-9.96659,13.20146l9.14621,24.08391l6.68288,12.98167l0.33859,6.91601l-4.7313,5.05656l-93.29503,83.91791l-5.50506,4.12962l-6.80276,-1.0424l-65.15144,-39.94409l-1.73733,-0.32416l-4.26172,6.51636l27.18445,51.00193v10.5705l-27.18556,51.00082l4.26061,6.51636l1.73733,-0.32526l65.15366,-39.9441l4.64249,-1.30993l2.16027,0.26642l5.50506,4.12962l92.11275,83.38728l4.67692,5.02992l-0.30861,6.86161l-5.93245,11.86601l-8.68996,23.59879l9.9666,13.20035h0.0011l4.47042,-0.95026l80.90617,-41.2285l3.70888,-0.96247l54.11294,-27.02384l-35.37312,-101.30192l9.769,-63.17766l11.1955,-5.69155l5.69266,11.19549l-8.89534,57.67372c0,0 27.29283,66.94226 32.03579,80.3002c1.12762,3.17579 29.11112,-3.10963 29.11112,-3.10963l81.39718,-75.29117z" fill="#ffffff" stroke="#ffffff" stroke-width="10.5"/><path d="M513.80274,138.58331l-46.06251,46.06443l-46.06251,-46.06443l46.06251,-46.06445zM482.85584,138.58331l-15.11562,-15.11756l-15.11562,15.11756l15.11562,15.11756z" fill="#ffffff" stroke="none" stroke-width="0"/><path d="M426.96438,-28.62984c0,-14.86124 12.04742,-26.90866 26.90866,-26.90866c14.86124,0 26.90866,12.04742 26.90866,26.90866c0,14.86124 -12.04742,26.90866 -26.90866,26.90866c-14.86124,0 -26.90866,-12.04742 -26.90866,-26.90866z" fill="#ffffff" stroke="none" stroke-width="none"/><path d="M512.28029,20.39989c0,-5.55255 4.50123,-10.05379 10.05379,-10.05379c5.55255,0 10.05379,4.50123 10.05379,10.05379c0,5.55255 -4.50123,10.05379 -10.05379,10.05379c-5.55255,0 -10.05379,-4.50123 -10.05379,-10.05379z" fill="#ffffff" stroke="none" stroke-width="0"/></g></g></svg>