<svg version="1.1" xmlns="http://www.w3.org/2000/svg" xmlns:xlink="http://www.w3.org/1999/xlink" width="190.60504" height="190.60504" viewBox="0,0,190.60504,190.60504"><g transform="translate(-224.69748,-84.69748)"><g data-paper-data="{&quot;isPaintingLayer&quot;:true}" fill-rule="nonzero" stroke-linecap="butt" stroke-linejoin="miter" stroke-miterlimit="10" stroke-dasharray="" stroke-dashoffset="0" style="mix-blend-mode: normal"><path d="M241.38663,257.66864c4.10679,-23.99905 16.01638,-93.59571 17.96222,-104.96674c0.52751,-3.08266 5.01627,-5.65827 9.43536,-5.65827c12.96654,0 77.72668,0 101.39358,0c5.415,0 9.63104,4.94645 10.62543,10.11178c2.67233,13.88129 15.0216,78.02889 19.38352,100.68661c0.95825,4.97757 -2.58551,7.95276 -9.47622,7.95276c-32.08921,0 -124.34083,0 -141.18898,0c-5.18025,0 -9.00554,-3.03844 -8.13492,-8.12614z" fill="#ffffff" stroke="none" stroke-width="0"/><path d="M342.02467,124.49996c0,11.63218 -9.47713,21.06192 -21.16776,21.06192c-11.69063,0 -21.16776,-9.42974 -21.16776,-21.06192c0,-11.63218 9.47713,-21.06192 21.16776,-21.06192c11.69063,0 21.16776,9.42974 21.16776,21.06192z" fill="none" stroke="#ffffff" stroke-width="25"/><path d="M224.69748,275.30252v-190.60504h190.60504v190.60504z" fill-opacity="0.01176" fill="#000000" stroke="none" stroke-width="0"/></g></g></svg>