<svg version="1.1" xmlns="http://www.w3.org/2000/svg" xmlns:xlink="http://www.w3.org/1999/xlink" width="170.90725" height="170.90725" viewBox="0,0,170.90725,170.90725"><g transform="translate(-234.54637,-94.54637)"><g data-paper-data="{&quot;isPaintingLayer&quot;:true}" fill-rule="nonzero" stroke-linejoin="miter" stroke-miterlimit="10" stroke-dasharray="" stroke-dashoffset="0" style="mix-blend-mode: normal"><path d="M234.54638,265.45363v-170.90725h170.90725v170.90725z" fill-opacity="0.01176" fill="#000000" stroke="none" stroke-width="0" stroke-linecap="butt"/><path d="M253.44689,121.06581c5.05157,0.06952 44.10814,0.60699 54.35071,0.74794c1.56111,0.02148 2.71416,1.03347 2.98618,2.07426c0.68642,2.6263 3.70508,14.17597 5.03015,19.24579c0.38524,1.47397 1.17239,2.40022 2.17208,2.40022c10.16277,0 59.50037,0 68.61968,0c2.3907,0 4.44195,2.46476 4.44195,5.30414c0,9.79996 0,66.18613 0,83.22239c0,3.07987 -2.24747,4.87369 -5.12131,4.87369c-13.93348,0 -113.68026,0 -132.81983,0c-1.85519,0 -4.19245,-2.07457 -4.15368,-4.69495c0.16309,-11.02467 2.28623,-106.53025 2.48715,-110.54873c0,0 0.94942,-2.6393 2.00691,-2.62475z" fill="none" stroke="#ffffff" stroke-width="25" stroke-linecap="round"/></g></g></svg>