<svg version="1.1" xmlns="http://www.w3.org/2000/svg" xmlns:xlink="http://www.w3.org/1999/xlink" width="181.32389" height="181.32389" viewBox="0,0,181.32389,181.32389"><g transform="translate(-229.33805,-89.33806)"><g data-paper-data="{&quot;isPaintingLayer&quot;:true}" fill-rule="nonzero" stroke-linejoin="miter" stroke-miterlimit="10" stroke-dasharray="" stroke-dashoffset="0" style="mix-blend-mode: normal"><path d="M234.5464,265.45365v-170.90725h170.90725v170.90725z" fill-opacity="0.01176" fill="#000000" stroke="none" stroke-width="0" stroke-linecap="butt"/><path d="M318.92969,157.38927v46.96101" fill="none" stroke="#ffffff" stroke-width="25" stroke-linecap="round"/><path d="M295.44919,180.86977h46.96101" fill="none" stroke="#ffffff" stroke-width="25" stroke-linecap="round"/><path d="M229.33805,270.66195v-181.32389h181.32389v181.32389z" fill="none" stroke="none" stroke-width="0" stroke-linecap="butt"/><g fill="none" stroke="#ffffff" stroke-width="25" stroke-linecap="round"><path d="M254.90492,144.28089c0,0 58.53703,-31.93391 65.2866,-35.71645c1.24432,-0.69733 3.45437,-0.5066 4.97508,0.38866c6.26378,3.68755 48.49415,28.54897 59.12412,34.80694c1.54716,0.91083 2.4195,3.55492 2.41349,5.92212c-0.01925,7.58511 -0.12284,48.39724 -0.15315,60.33851c-0.00528,2.07991 -1.66216,4.19908 -3.60762,5.2756c-8.33544,4.61242 -66.07369,36.56187 -66.07369,36.56187"/><path d="M385.89967,215.71915c0,0 -58.53703,31.93391 -65.2866,35.71645c-1.24432,0.69733 -3.45437,0.5066 -4.97508,-0.38866c-6.26378,-3.68755 -48.49415,-28.54897 -59.12412,-34.80694c-1.54716,-0.91083 -2.4195,-3.55492 -2.41349,-5.92212c0.01925,-7.58511 0.12284,-48.39724 0.15315,-60.33851c0.00528,-2.07991 1.66216,-4.19908 3.60762,-5.2756c8.33544,-4.61242 66.07369,-36.56187 66.07369,-36.56187"/></g></g></g></svg>