<svg version="1.1" xmlns="http://www.w3.org/2000/svg" xmlns:xlink="http://www.w3.org/1999/xlink" width="190.60504" height="190.60504" viewBox="0,0,190.60504,190.60504"><g transform="translate(-224.69748,-84.69748)"><g data-paper-data="{&quot;isPaintingLayer&quot;:true}" fill-rule="nonzero" stroke="none" stroke-width="0" stroke-linecap="butt" stroke-linejoin="miter" stroke-miterlimit="10" stroke-dasharray="" stroke-dashoffset="0" style="mix-blend-mode: normal"><path d="M264.58489,149.34326c0,-28.50474 23.10766,-51.6124 51.6124,-51.6124c28.50474,0 51.6124,23.10766 51.6124,51.6124c0,28.50474 -23.10766,51.6124 -51.6124,51.6124c-28.50474,0 -51.6124,-23.10766 -51.6124,-51.6124z" fill="#ffffff"/><path d="M306.78453,208.00229c0,0 25.80237,3.8198 42.17567,-9.64549c21.44272,-13.78574 24.25416,-35.61659 24.25416,-35.61659c0,0 33.40813,9.77197 34.25484,46.32046c0.66019,28.4971 -23.31753,55.06501 -51.6124,51.6124c-50.30753,-6.13865 -49.07226,-52.67078 -49.07226,-52.67078z" fill="#ffffff"/><path d="M259.19102,165.9862c0,0 12.47938,34.90451 39.70371,39.00051c-3.57183,30.1215 15.93057,43.94018 15.93057,43.94018c0,0 -12.3121,12.45204 -31.29135,12.02868c-28.49709,0.66019 -54.19638,-23.20655 -51.82407,-51.6124c2.75181,-32.94997 27.48114,-43.35697 27.48114,-43.35697z" fill="#ffffff"/><path d="M224.69748,275.30252v-190.60504h190.60504v190.60504z" fill-opacity="0.01176" fill="#000000"/></g></g></svg>