<svg version="1.1" xmlns="http://www.w3.org/2000/svg" xmlns:xlink="http://www.w3.org/1999/xlink" width="31.74184" height="31.74184" viewBox="0,0,31.74184,31.74184"><g transform="translate(-308.9824,-164.12908)"><g data-paper-data="{&quot;isPaintingLayer&quot;:true}" fill-rule="nonzero" stroke-linejoin="miter" stroke-miterlimit="10" stroke-dasharray="" stroke-dashoffset="0" style="mix-blend-mode: normal"><path d="M310.7324,190.60619c0,-5.97245 0,-17.78085 0,-21.12969c0,-1.73529 1.66729,-3.59742 3.26663,-3.59742c3.31164,0 15.66909,0 21.66724,0c2.01162,0 3.30797,1.76429 3.30797,3.43203c0,3.3513 0,15.55184 0,21.50184c0,2.01099 -1.69146,3.30797 -3.30797,3.30797c-3.36844,0 -15.98713,0 -21.87399,0c-1.86933,0 -3.05988,-1.38702 -3.05988,-3.51472z" fill="#ffffff" stroke="#000000" stroke-width="3.5" stroke-linecap="butt"/><path d="M325.176,183.92053v-7.37509" fill="none" stroke="#000000" stroke-width="5" stroke-linecap="round"/><path d="M332.71689,176.39418v7.37509" fill="none" stroke="#000000" stroke-width="5" stroke-linecap="round"/><path d="M320.53884,185.92797c0,0 3.37789,-0.94456 4.72616,-0.95396c1.33842,-0.00932 3.33409,0.89779 3.33409,0.89779" fill="none" stroke="#ffffff" stroke-width="5" stroke-linecap="round"/><path d="M330.04405,185.77328c0,0 1.02287,-0.94312 2.40456,-0.89285c1.29813,0.04723 1.26162,0.13009 1.26162,0.13009" fill="none" stroke="#ffffff" stroke-width="5" stroke-linecap="round"/></g></g></svg>