<svg version="1.1" xmlns="http://www.w3.org/2000/svg" xmlns:xlink="http://www.w3.org/1999/xlink" width="190.60504" height="190.60504" viewBox="0,0,190.60504,190.60504"><g transform="translate(-224.69748,-84.69748)"><g data-paper-data="{&quot;isPaintingLayer&quot;:true}" fill-rule="nonzero" stroke-linejoin="miter" stroke-miterlimit="10" stroke-dasharray="" stroke-dashoffset="0" style="mix-blend-mode: normal"><path d="M242.74786,235.73656c0,-20.60144 0,-100.11308 0,-112.40082c0,-3.12116 2.21878,-5.7153 5.08026,-5.7153c14.02477,0 124.84725,0 146.90427,0c2.45486,0 3.8102,1.85945 3.8102,4.23355c0,10.91582 0,92.37766 0,113.67089c0,3.23417 -2.01589,5.08026 -4.65691,5.08026c-13.37956,0 -122.48275,0 -146.48092,0c-2.98823,0 -4.65691,-1.76642 -4.65691,-4.86859z" fill="none" stroke="#ffffff" stroke-width="25" stroke-linecap="butt"/><path d="M255.02517,151.48886c0,-10.28776 8.33987,-18.62763 18.62763,-18.62763c10.28776,0 18.62763,8.33987 18.62763,18.62763c0,10.28776 -8.33987,18.62763 -18.62763,18.62763c-10.28776,0 -18.62763,-8.33987 -18.62763,-18.62763z" fill="#ffffff" stroke="none" stroke-width="0" stroke-linecap="butt"/><path d="M251.00329,217.10893l34.71513,-34.71513l11.95979,11.95979l46.99243,-46.99243l45.82821,45.82821" fill="#ffffff" stroke="#ffffff" stroke-width="5" stroke-linecap="round"/><path d="M252.69671,234.25481v-19.05099l134.41529,-23.49622v42.5472z" fill="#ffffff" stroke="#ffffff" stroke-width="5" stroke-linecap="butt"/><path d="M224.69748,275.30252v-190.60504h190.60504v190.60504z" fill-opacity="0.01176" fill="#000000" stroke="none" stroke-width="0" stroke-linecap="butt"/></g></g></svg>