<svg version="1.1" xmlns="http://www.w3.org/2000/svg" xmlns:xlink="http://www.w3.org/1999/xlink" width="396.18321" height="395.58338" viewBox="0,0,396.18321,395.58338"><g transform="translate(-121.89733,17.77144)"><g data-paper-data="{&quot;isPaintingLayer&quot;:true}" fill="#ffffff" fill-rule="nonzero" stroke="none" stroke-width="1" stroke-linecap="butt" stroke-linejoin="miter" stroke-miterlimit="10" stroke-dasharray="" stroke-dashoffset="0" style="mix-blend-mode: normal"><path d="M341.85773,-17.75987c0,0 18.5272,2.57735 27.55341,4.81866c13.10086,3.25309 25.89367,7.7744 37.86617,14.04912c9.42259,4.93832 18.68309,10.36085 27.36195,16.49328c8.42613,5.95381 16.39289,12.69425 23.86784,19.81711c6.69515,6.3798 12.57699,13.63943 18.58026,20.71235c7.55305,8.89881 13.53947,18.8827 18.99417,29.15422c6.48052,12.20315 11.47658,25.01819 15.21634,38.33939c3.46803,12.35329 6.02614,24.84303 6.76396,37.67863c0.03385,0.58892 0.01703,32.18016 -0.0128,32.4515c-0.42207,3.83699 -0.57225,7.71827 -1.2314,11.51183c-1.3847,7.96959 -2.71479,15.97139 -4.64225,23.81875c-3.04838,12.41128 -7.39585,24.44364 -13.26422,35.78963c-4.58919,8.87275 -9.48973,17.68021 -15.20811,25.84711c-6.1255,8.74839 -13.22527,16.83734 -20.19183,24.96373c-3.14778,3.67178 -6.84626,6.92437 -10.57103,10.03672c-6.32609,5.28592 -12.72244,10.51143 -19.35552,15.40113c-12.38126,9.12712 -25.98154,16.09097 -40.25628,21.75717c-12.77995,5.07295 -25.90753,8.93782 -39.50193,11.09884c-4.44198,0.70616 -8.92568,1.14731 -13.37813,1.79369c-0.42359,0.06151 -40.16979,0.04391 -40.58298,-0.00932c-3.3544,-0.43196 -6.77306,-0.53618 -10.06674,-1.23618c-9.88936,-2.10173 -19.86473,-3.96625 -29.56009,-6.77424c-14.98035,-4.3386 -28.96134,-11.07105 -42.39935,-19.03854c-12.14066,-7.19832 -23.33608,-15.5848 -33.5887,-25.2152c-7.96439,-7.48103 -15.70516,-15.24295 -21.95745,-24.26134c-5.92523,-8.54667 -12.01596,-17.04592 -17.09142,-26.09464c-4.64246,-8.27673 -8.5311,-17.0737 -11.81813,-25.98581c-3.25499,-8.82522 -5.72982,-17.9927 -7.82265,-27.17512c-1.74023,-7.63539 -2.41743,-15.51216 -3.62684,-23.27247c-0.05131,-0.32921 -0.05443,-37.18247 0.02751,-37.69407c1.58031,-9.8666 2.58492,-19.86268 4.8105,-29.5796c3.05802,-13.35146 7.95486,-26.18532 14.0198,-38.46987c5.92627,-12.00366 12.62576,-23.60542 21.22634,-33.9588c5.60533,-6.74769 11.07148,-13.65777 17.19007,-19.91842c5.46329,-5.59014 11.62977,-10.51796 17.67657,-15.50703c8.99195,-7.41904 18.79906,-13.68497 29.04845,-19.1936c9.94895,-5.34716 20.26091,-9.99787 31.10514,-13.21525c8.42437,-2.49943 16.9802,-4.59705 25.55381,-6.53643c5.0013,-1.13131 15.2294,-2.40848 15.2294,-2.40848M324.03528,57.2123c-6.34011,0 -12.68045,-0.03648 -19.02029,0.00638c-26.17759,0.17695 -52.35686,0.25732 -78.53135,0.65094c-6.94872,0.1045 -12.79363,3.67564 -17.89046,8.18772c-8.23664,7.29164 -11.6182,16.90117 -11.60694,27.55357c0.0625,59.1294 0.28388,118.25878 0.57434,177.38755c0.02859,5.82099 2.02628,11.35933 5.01635,16.32169c6.42064,10.65576 16.3733,15.39896 28.47836,15.42c60.04053,0.10433 120.0814,0.08507 180.1219,-0.02499c4.7074,-0.00862 9.47505,-0.73036 13.82671,-2.94901c11.91907,-6.07677 17.35948,-16.34911 17.40322,-29.16415c0.20695,-60.61641 0.10524,-121.23391 0.04465,-181.85094c-0.00239,-2.3902 -0.60616,-4.80047 -1.10244,-7.16514c-0.99183,-4.72578 -3.3187,-8.77349 -6.2491,-12.59909c-3.04521,-3.9755 -6.81987,-6.82402 -11.31273,-8.90989c-5.43599,-2.52373 -11.19661,-2.86893 -17.04005,-2.86753c-27.37856,0.00655 -54.75713,0.0029 -82.71215,0.0029z"/><path d="M279.93547,86.0357c43.2236,0 86.15898,-0.00021 129.09435,0.00039c3.59326,0.00006 4.64326,1.05368 4.6435,4.73358c0.00387,59.64847 -0.00028,119.29694 0.00987,178.94541c0.00063,3.80021 -1.10042,4.31021 -4.23194,4.30613c-59.26417,-0.0772 -118.52845,-0.05678 -177.79273,-0.05716c-4.13974,-0.00004 -5.31118,-1.11442 -5.32591,-5.32919c-0.20497,-58.63913 -0.39834,-117.27829 -0.57397,-175.91752c-0.01277,-4.26063 2.56847,-6.68079 6.91957,-6.68114c15.65634,-0.00126 31.31269,-0.0005 47.25726,-0.0005M329.80566,235.91948c0.90708,0.19143 1.83293,0.6113 2.7183,0.53856c7.87538,-0.647 14.19842,-6.02149 14.23314,-14.52946c0.12428,-30.43262 0.08997,-60.86618 0.00554,-91.29907c-0.01314,-4.73311 -1.81357,-8.73361 -5.88359,-11.68507c-4.80791,-3.48655 -9.73219,-3.82565 -14.94449,-1.35923c-5.25083,2.48467 -7.84581,7.03314 -7.87466,12.53172c-0.16123,30.72029 -0.15657,61.44225 -0.01615,92.16274c0.03107,6.79281 4.6249,12.10968 11.7619,13.63981M366.98215,160.68832c0,19.40253 -0.03476,38.80516 0.01691,58.20755c0.02107,7.90881 6.687,15.21818 16.03997,14.2533c6.99594,-0.72171 12.72565,-7.03943 12.74139,-14.31494c0.06154,-28.43125 0.20472,-56.86453 -0.08205,-85.29302c-0.0884,-8.7656 -5.13291,-13.82583 -13.48826,-14.51052c-8.35728,-0.68485 -14.97814,5.46395 -15.18235,14.28372c-0.20673,8.92804 -0.0456,17.86462 -0.0456,27.37392z"/></g></g></svg>