<svg version="1.1" xmlns="http://www.w3.org/2000/svg" xmlns:xlink="http://www.w3.org/1999/xlink" width="170.90725" height="170.90725" viewBox="0,0,170.90725,170.90725"><g transform="translate(-237.36925,-94.19353)"><g data-paper-data="{&quot;isPaintingLayer&quot;:true}" fill-rule="nonzero" stroke-linecap="butt" stroke-linejoin="miter" stroke-miterlimit="10" stroke-dasharray="" stroke-dashoffset="0" style="mix-blend-mode: normal"><path d="M237.36925,265.10078v-170.90725h170.90725v170.90725z" fill-opacity="0.01176" fill="#000000" stroke="none" stroke-width="0"/><path d="M373.27394,105.54504c4.91845,4.91845 18.08013,18.18699 20.94465,21.05151c1.06423,1.06423 2.07721,3.47286 2.07721,5.31693c0,10.77024 0,110.51036 0,110.51036c0,7.62958 -6.24239,13.87197 -13.87197,13.87197h-124.84764c-7.62958,0 -13.87197,-6.24239 -13.87197,-13.87197v-124.84764c0,-7.62958 6.24239,-13.87196 13.87197,-13.87196c0,0 3.37565,-0.14871 5.32377,0c6.4805,0.49468 8.54819,7.66022 8.54819,13.02933c0,8.69046 0,34.13534 0,34.13534c0,3.81479 3.12119,6.58918 6.58918,6.58918h73.86819c3.81479,0 6.58918,-3.12119 6.58918,-6.58918c0,0 0,-36.46517 0,-43.17509c0,-2.03969 1.008,-3.98958 2.39863,-3.98958c2.38905,0 5.90742,0 7.38426,0c1.30433,0 3.84858,0.69305 4.99635,1.84081zM382.77063,177.91922c0,-3.81479 -3.12119,-6.58918 -6.58918,-6.58918h-112.01608c-3.81479,0 -6.58918,3.12119 -6.58918,6.58918v57.91544c0,3.81479 3.12119,6.58918 6.58918,6.58918h112.01608c3.81479,0 6.58918,-3.12119 6.58918,-6.58918zM323.08296,103.70423c2.41513,0 7.24509,0 11.75465,0c5.2861,0 10.13193,6.32321 10.13193,10.49032c0,6.14371 0,22.80239 0,22.80239c0,3.81479 -3.12119,6.58919 -6.58918,6.58919h-15.95276c-3.81479,0 -6.58918,-3.1212 -6.58918,-6.58919c0,0 0.21337,-20.48387 0.27533,-26.43143c0.03157,-3.03027 4.02409,-6.86127 6.96921,-6.86127z" fill="#ffffff" stroke="none" stroke-width="1"/><path d="M265.04234,236.28088c0,0 0,-44.86082 0,-54.16539c0,-3.22973 3.53369,-6.52621 7.57128,-6.52621c12.59685,0 76.85054,0 93.68384,0c2.48705,0 5.83733,3.39844 5.83733,6.70264c0,9.37769 0,53.98896 0,53.98896z" fill="none" stroke="#ffffff" stroke-width="25"/></g></g></svg>