<svg version="1.1" xmlns="http://www.w3.org/2000/svg" xmlns:xlink="http://www.w3.org/1999/xlink" width="190.60504" height="190.60504" viewBox="0,0,190.60504,190.60504"><g transform="translate(-224.69748,-84.69748)"><g data-paper-data="{&quot;isPaintingLayer&quot;:true}" fill-rule="nonzero" stroke-linejoin="miter" stroke-miterlimit="10" stroke-dasharray="" stroke-dashoffset="0" style="mix-blend-mode: normal"><path d="M399.73863,182.78868c0,0 -20.60854,43.05148 -23.32479,49.43916c-0.70213,1.65116 -2.48379,3.11696 -4.58112,3.11696c-18.75811,0 -112.62605,0 -124.64639,0c-2.48395,0 -4.41844,-1.95979 -4.41844,-5.34864c0,-19.85585 0.23255,-86.44593 0.23255,-97.67067c0,-0.26176 0.017,-0.51966 0.04989,-0.77236c0.34719,-2.66731 2.46532,-4.75625 5.0591,-4.70202c12.55405,0.26246 102.59476,-0.17579 123.72522,0.26596c2.82709,0.05911 5.16553,2.27846 5.96679,4.61702c2.76409,8.06727 21.93718,51.05458 21.93718,51.05458z" fill="none" stroke="#ffffff" stroke-width="25" stroke-linecap="round"/><path d="M283.46401,161.39414h50.23063" fill="none" stroke="#ffffff" stroke-width="25" stroke-linecap="round"/><path d="M356.25191,201.16006h-27.44081" fill="none" stroke="#ffffff" stroke-width="25" stroke-linecap="round"/><path d="M298.57971,200.92751h-26.27806" fill="none" stroke="#ffffff" stroke-width="25" stroke-linecap="round"/><path d="M224.69748,275.30252v-190.60504h190.60504v190.60504z" fill-opacity="0.01176" fill="#000000" stroke="none" stroke-width="0" stroke-linecap="butt"/></g></g></svg>