<svg version="1.1" xmlns="http://www.w3.org/2000/svg" xmlns:xlink="http://www.w3.org/1999/xlink" width="170.90725" height="170.90725" viewBox="0,0,170.90725,170.90725"><g transform="translate(-234.54637,-94.54638)"><g data-paper-data="{&quot;isPaintingLayer&quot;:true}" fill-rule="nonzero" stroke-linejoin="miter" stroke-miterlimit="10" stroke-dasharray="" stroke-dashoffset="0" style="mix-blend-mode: normal"><path d="M234.54638,265.45364v-170.90725h170.90725v170.90725z" fill-opacity="0.01176" fill="#000000" stroke="none" stroke-width="0" stroke-linecap="butt"/><path d="M254.24123,146.5725c0.0279,-1.9805 1.19012,-2.55417 2.61844,-1.85688c6.22256,3.03779 50.20193,24.59244 60.82667,29.77932c1.46747,0.7164 2.41232,2.44653 2.31534,4.74471c-0.58007,13.74624 -2.62934,62.27489 -2.9705,69.88281c-0.08813,1.96517 -1.40843,3.00595 -3.27395,1.97294c-11.45736,-6.34438 -52.76643,-29.24223 -58.43373,-32.71526c-1.1745,-0.71976 -2.05364,-2.84051 -2.02711,-4.72422c0.10342,-7.34313 0.76691,-54.45015 0.94484,-67.08343z" fill="#ffffff" stroke="#ffffff" stroke-width="25" stroke-linecap="round"/><path d="M254.9049,144.28087c0,0 58.53703,-31.93391 65.2866,-35.71645c1.24432,-0.69733 3.45437,-0.5066 4.97508,0.38866c6.26378,3.68755 48.49415,28.54897 59.12412,34.80694c1.54716,0.91083 2.4195,3.55492 2.41349,5.92212c-0.01925,7.58511 -0.12284,48.39724 -0.15315,60.33851c-0.00528,2.07991 -1.66216,4.19908 -3.60762,5.2756c-8.33544,4.61242 -66.07369,36.56187 -66.07369,36.56187" fill="none" stroke="#ffffff" stroke-width="25" stroke-linecap="round"/><path d="M377.20689,148.29952l-57.74386,28.0075" fill="none" stroke="#ffffff" stroke-width="25" stroke-linecap="round"/></g></g></svg>